HIERARCHY
ROOT Hips
{
	OFFSET 15.585500 22.159004 44.358299
	CHANNELS 6 Xposition Yposition Zposition Zrotation Xrotation Yrotation
	JOINT Chest
	{
		OFFSET -0.128500 0.160400 6.566002
		CHANNELS 6 Xposition Yposition Zposition Zrotation Xrotation Yrotation
		JOINT Chest2
		{
			OFFSET 0.000000 0.000000 3.554802
			CHANNELS 6 Xposition Yposition Zposition Zrotation Xrotation Yrotation
			JOINT Neck
			{
				OFFSET 0.000000 0.000000 8.267998
				CHANNELS 6 Xposition Yposition Zposition Zrotation Xrotation Yrotation
				JOINT Head
				{
					OFFSET 0.000000 0.000002 2.173897
					CHANNELS 6 Xposition Yposition Zposition Zrotation Xrotation Yrotation
					End Site
					{
						OFFSET 0.000000 0.000000 7.718697
					}
				}
			}
			JOINT LeftCollar
			{
				OFFSET 2.057500 0.117599 5.946301
				CHANNELS 6 Xposition Yposition Zposition Zrotation Xrotation Yrotation
				JOINT LeftShoulder
				{
					OFFSET 4.957699 0.000000 0.000000
					CHANNELS 6 Xposition Yposition Zposition Zrotation Xrotation Yrotation
					JOINT LeftElbow
					{
						OFFSET 0.000000 0.000000 -8.465500
						CHANNELS 6 Xposition Yposition Zposition Zrotation Xrotation Yrotation
						JOINT LeftWrist
						{
							OFFSET 0.000000 -0.000002 -14.594898
							CHANNELS 6 Xposition Yposition Zposition Zrotation Xrotation Yrotation
							End Site
							{
								OFFSET 0.000000 0.000000 -2.173901
							}
						}
					}
				}
			}
			JOINT RightCollar
			{
				OFFSET -3.048500 -0.728800 6.604099
				CHANNELS 6 Xposition Yposition Zposition Zrotation Xrotation Yrotation
				JOINT RightShoulder
				{
					OFFSET -3.710299 0.000000 0.000000
					CHANNELS 6 Xposition Yposition Zposition Zrotation Xrotation Yrotation
					JOINT RightElbow
					{
						OFFSET 0.000000 0.000000 -10.450901
						CHANNELS 6 Xposition Yposition Zposition Zrotation Xrotation Yrotation
						JOINT RightWrist
						{
							OFFSET 0.000000 0.000000 -12.539200
							CHANNELS 6 Xposition Yposition Zposition Zrotation Xrotation Yrotation
							End Site
							{
								OFFSET 0.000000 -0.000002 -2.173901
							}
						}
					}
				}
			}
		}
	}
	JOINT LeftHip
	{
		OFFSET 2.442599 -0.601400 -2.767502
		CHANNELS 6 Xposition Yposition Zposition Zrotation Xrotation Yrotation
		JOINT LeftKnee
		{
			OFFSET 0.000000 -0.000002 -17.033703
			CHANNELS 6 Xposition Yposition Zposition Zrotation Xrotation Yrotation
			JOINT LeftAnkle
			{
				OFFSET 0.000000 -0.000002 -19.318800
				CHANNELS 6 Xposition Yposition Zposition Zrotation Xrotation Yrotation
				End Site
				{
					OFFSET 0.000000 -8.281900 0.000000
				}
			}
		}
	}
	JOINT RightHip
	{
		OFFSET -3.126200 -0.601400 -2.283501
		CHANNELS 6 Xposition Yposition Zposition Zrotation Xrotation Yrotation
		JOINT RightKnee
		{
			OFFSET 0.000000 -0.000002 -16.919401
			CHANNELS 6 Xposition Yposition Zposition Zrotation Xrotation Yrotation
			JOINT RightAnkle
			{
				OFFSET 0.000000 -0.000002 -18.035900
				CHANNELS 6 Xposition Yposition Zposition Zrotation Xrotation Yrotation
				End Site
				{
					OFFSET 0.000000 -9.230099 0.000000
				}
			}
		}
	}
}
MOTION
Frames: 4
Frame Time: 0.041667
23.380398 40.708603 7.654705 4.926664 -7.499579 -0.776174 -0.128499 0.160401 6.566002 -5.259106 14.765718 1.463953 0.000001 0.000005 3.554799 0.733322 -8.838418 -0.973103 0.000004 -0.000004 8.267996 0.184279 22.554412 2.543061 -0.000000 0.000006 2.173902 -0.198662 8.502208 1.421697 2.057507 0.117596 5.946306 -22.750196 1.635584 11.154970 4.957698 0.000010 0.000005 -24.838246 -4.673682 -61.063660 0.000010 -0.000002 -8.465509 -122.779959 -119.693410 -92.459991 0.000000 0.000004 -14.594900 -65.834800 -15.204896 -83.855066 -3.048497 -0.728803 6.604101 27.039636 1.608203 -13.182079 -3.710296 0.000002 0.000002 29.644172 3.709830 59.575861 -0.000003 0.000007 -10.450899 -136.274377 -79.228931 -154.835744 0.000005 0.000006 -12.539200 223.251454 9.532776 -105.579254 2.442597 -0.601405 -2.767504 131.961686 -2.477731 93.233161 -0.000003 -0.000006 -17.033703 -142.742006 29.734095 126.215899 -0.000000 -0.000000 -19.318806 150.196994 132.805857 296.320736 -3.126199 -0.601407 -2.283500 -132.175102 -24.641852 -95.160921 -0.000000 -0.000002 -16.919399 163.406839 37.820605 -174.324323 -0.000001 -0.000005 -18.035896 -34.242494 33.929521 -209.121937
23.383900 40.661499 7.667805 4.927788 -7.197237 -0.829841 -0.128497 0.160394 6.566003 -5.264872 14.540949 1.491288 -0.000000 -0.000004 3.554801 0.748584 -8.863712 -0.909290 0.000002 0.000003 8.267994 0.184267 22.468464 2.467006 0.000002 0.000003 2.173898 -0.207112 8.557513 1.417504 2.057503 0.117602 5.946308 -22.593858 1.593464 11.128174 4.957698 0.000001 0.000005 -25.150425 -4.563306 -61.355610 0.000001 0.000001 -8.465500 -123.094352 -119.634984 -92.726505 -0.000003 0.000001 -14.594896 -66.534287 -15.503594 -84.160116 -3.048500 -0.728796 6.604105 26.900869 1.518945 -13.161809 -3.710289 0.000002 -0.000001 29.788685 3.697164 59.820545 -0.000003 0.000008 -10.450901 -136.633385 -79.411085 -155.514050 0.000006 0.000002 -12.539202 223.745837 9.368279 -105.585497 2.442599 -0.601404 -2.767501 132.059440 -2.326936 93.311661 -0.000002 0.000001 -17.033703 -142.502977 29.487648 126.213659 0.000003 0.000003 -19.318806 150.530252 132.785817 296.326282 -3.126192 -0.601408 -2.283498 -132.341404 -24.441166 -95.347890 0.000002 0.000001 -16.919395 163.421237 37.723965 -174.353679 0.000000 -0.000002 -18.035896 -34.278554 33.927691 -209.088141
23.387798 40.612301 7.680897 4.928474 -6.891710 -0.887355 -0.128502 0.160396 6.566007 -5.270805 14.313653 1.522066 -0.000003 -0.000003 3.554806 0.762597 -8.888282 -0.846959 0.000005 0.000001 8.267998 0.182924 22.359379 2.390541 0.000002 -0.000003 2.173901 -0.209573 8.600666 1.406399 2.057508 0.117600 5.946306 -22.448364 1.542513 10.785229 4.957700 0.000008 -0.000001 -25.434586 -4.591835 -61.360910 -0.000006 0.000000 -8.465503 -123.412625 -119.587282 -93.010484 -0.000002 -0.000001 -14.594897 -67.340666 -15.331702 -84.886820 -3.048500 -0.728803 6.604101 26.745790 1.426002 -13.106769 -3.710293 0.000008 -0.000002 29.955608 3.658233 60.029132 0.000002 0.000010 -10.450896 -136.709105 -79.753455 -155.972260 0.000004 0.000003 -12.539200 224.275286 9.381475 -105.783757 2.442594 -0.601404 -2.767505 132.158095 -2.177751 93.390208 -0.000003 -0.000002 -17.033707 -142.262295 29.243991 126.217429 0.000003 0.000002 -19.318804 150.857541 132.763660 296.319506 -3.126198 -0.601407 -2.283501 -132.509932 -24.244561 -95.539190 -0.000002 0.000001 -16.919401 163.435362 37.624579 -174.386710 -0.000002 -0.000002 -18.035896 -34.314474 33.923753 -209.054264
23.391796 40.561104 7.694099 4.928438 -6.584242 -0.955021 -0.128502 0.160400 6.566006 -5.304746 14.084958 1.694050 -0.000004 0.000001 3.554801 0.782465 -8.911869 -0.911395 0.000002 -0.000002 8.267998 0.180182 22.223755 2.313698 0.000002 0.000005 2.173901 -0.206155 8.630555 1.388683 2.057509 0.117591 5.946302 -22.291743 1.483815 10.425064 4.957699 0.000003 0.000002 -25.734450 -4.632341 -61.353793 0.000003 -0.000000 -8.465502 -123.756867 -119.550754 -93.336092 0.000001 0.000004 -14.594893 -69.113530 -16.244524 -85.362919 -3.048504 -0.728806 6.604098 26.575197 1.326003 -13.015838 -3.710297 0.000010 -0.000001 30.142318 3.592924 60.201117 0.000000 0.000004 -10.450902 -136.769921 -80.070909 -156.206904 0.000005 0.000005 -12.539202 224.819611 9.548994 -105.864203 2.442592 -0.601399 -2.767501 132.257693 -2.026445 93.464432 0.000000 0.000003 -17.033707 -142.022091 29.005358 126.227674 0.000008 -0.000001 -19.318806 151.174544 132.739536 296.299999 -3.126200 -0.601403 -2.283499 -132.680099 -24.061904 -95.739322 0.000000 0.000002 -16.919394 163.445935 37.524014 -174.423593 -0.000001 -0.000000 -18.035896 -34.347474 33.916585 -209.021165
